<mxfile host="app.diagrams.net" modified="2023-10-13T15:12:40.556Z" agent="Mozilla/5.0 (Windows NT 10.0; Win64; x64) AppleWebKit/537.36 (KHTML, like Gecko) Chrome/117.0.0.0 Safari/537.36" etag="kAEh31dp8uYS9J7YgV0h" version="22.0.4" type="github" pages="2">
  <diagram name="Page-1" id="jFVgY4yOYou9wMq_OtnQ">
    <mxGraphModel dx="1050" dy="534" grid="1" gridSize="10" guides="1" tooltips="1" connect="1" arrows="1" fold="1" page="1" pageScale="1" pageWidth="850" pageHeight="1100" math="0" shadow="0">
      <root>
        <mxCell id="0" />
        <mxCell id="1" parent="0" />
        <mxCell id="rrGGKNv6e80Rq0QdDcq7-5" style="rounded=0;orthogonalLoop=1;jettySize=auto;html=1;exitX=0.5;exitY=0.5;exitDx=0;exitDy=0;exitPerimeter=0;endArrow=none;endFill=0;" edge="1" parent="1" source="rrGGKNv6e80Rq0QdDcq7-1" target="rrGGKNv6e80Rq0QdDcq7-4">
          <mxGeometry relative="1" as="geometry" />
        </mxCell>
        <mxCell id="rrGGKNv6e80Rq0QdDcq7-1" value="Customers" style="shape=umlActor;verticalLabelPosition=bottom;verticalAlign=top;html=1;outlineConnect=0;" vertex="1" parent="1">
          <mxGeometry x="10" y="395" width="60" height="100" as="geometry" />
        </mxCell>
        <mxCell id="rrGGKNv6e80Rq0QdDcq7-3" value="" style="whiteSpace=wrap;html=1;aspect=fixed;fillColor=none;" vertex="1" parent="1">
          <mxGeometry x="90" y="175" width="625" height="625" as="geometry" />
        </mxCell>
        <mxCell id="rrGGKNv6e80Rq0QdDcq7-4" value="Select a crops" style="ellipse;whiteSpace=wrap;html=1;" vertex="1" parent="1">
          <mxGeometry x="110" y="670" width="120" height="70" as="geometry" />
        </mxCell>
        <mxCell id="rrGGKNv6e80Rq0QdDcq7-9" style="rounded=0;orthogonalLoop=1;jettySize=auto;html=1;dashed=1;endArrow=none;endFill=0;startArrow=open;startFill=0;" edge="1" parent="1" source="rrGGKNv6e80Rq0QdDcq7-6" target="rrGGKNv6e80Rq0QdDcq7-8">
          <mxGeometry relative="1" as="geometry" />
        </mxCell>
        <mxCell id="23tt6sN3tSa6Yju3RPYi-6" value="&amp;lt;&amp;lt;Extend&amp;gt;&amp;gt;" style="edgeLabel;html=1;align=center;verticalAlign=middle;resizable=0;points=[];" vertex="1" connectable="0" parent="rrGGKNv6e80Rq0QdDcq7-9">
          <mxGeometry x="0.1915" y="-1" relative="1" as="geometry">
            <mxPoint as="offset" />
          </mxGeometry>
        </mxCell>
        <mxCell id="rrGGKNv6e80Rq0QdDcq7-11" style="rounded=0;orthogonalLoop=1;jettySize=auto;html=1;entryX=0;entryY=1;entryDx=0;entryDy=0;endArrow=none;endFill=0;" edge="1" parent="1" source="rrGGKNv6e80Rq0QdDcq7-6" target="rrGGKNv6e80Rq0QdDcq7-10">
          <mxGeometry relative="1" as="geometry" />
        </mxCell>
        <mxCell id="rrGGKNv6e80Rq0QdDcq7-6" value="Add to cart" style="ellipse;whiteSpace=wrap;html=1;" vertex="1" parent="1">
          <mxGeometry x="210" y="435" width="120" height="70" as="geometry" />
        </mxCell>
        <mxCell id="rrGGKNv6e80Rq0QdDcq7-7" style="rounded=0;orthogonalLoop=1;jettySize=auto;html=1;exitX=1;exitY=0;exitDx=0;exitDy=0;endArrow=none;endFill=0;" edge="1" parent="1" source="rrGGKNv6e80Rq0QdDcq7-4" target="rrGGKNv6e80Rq0QdDcq7-29">
          <mxGeometry relative="1" as="geometry" />
        </mxCell>
        <mxCell id="rrGGKNv6e80Rq0QdDcq7-8" value="Remove item" style="ellipse;whiteSpace=wrap;html=1;" vertex="1" parent="1">
          <mxGeometry x="350" y="575" width="120" height="60" as="geometry" />
        </mxCell>
        <mxCell id="rrGGKNv6e80Rq0QdDcq7-13" style="rounded=0;orthogonalLoop=1;jettySize=auto;html=1;exitX=1;exitY=0.5;exitDx=0;exitDy=0;entryX=0;entryY=0;entryDx=0;entryDy=0;endArrow=none;endFill=0;" edge="1" parent="1" source="rrGGKNv6e80Rq0QdDcq7-10" target="rrGGKNv6e80Rq0QdDcq7-32">
          <mxGeometry relative="1" as="geometry" />
        </mxCell>
        <mxCell id="rrGGKNv6e80Rq0QdDcq7-27" style="rounded=0;orthogonalLoop=1;jettySize=auto;html=1;entryX=0;entryY=1;entryDx=0;entryDy=0;dashed=1;startArrow=open;startFill=0;endArrow=none;endFill=0;" edge="1" parent="1" source="rrGGKNv6e80Rq0QdDcq7-10" target="rrGGKNv6e80Rq0QdDcq7-26">
          <mxGeometry relative="1" as="geometry" />
        </mxCell>
        <mxCell id="23tt6sN3tSa6Yju3RPYi-3" value="&amp;lt;&amp;lt;Extend&amp;gt;&amp;gt;" style="edgeLabel;html=1;align=center;verticalAlign=middle;resizable=0;points=[];" vertex="1" connectable="0" parent="rrGGKNv6e80Rq0QdDcq7-27">
          <mxGeometry x="0.1085" y="-2" relative="1" as="geometry">
            <mxPoint as="offset" />
          </mxGeometry>
        </mxCell>
        <mxCell id="rrGGKNv6e80Rq0QdDcq7-10" value="Proceed to checkout" style="ellipse;whiteSpace=wrap;html=1;" vertex="1" parent="1">
          <mxGeometry x="290" y="335" width="120" height="60" as="geometry" />
        </mxCell>
        <mxCell id="rrGGKNv6e80Rq0QdDcq7-23" style="rounded=0;orthogonalLoop=1;jettySize=auto;html=1;entryX=0.5;entryY=0.5;entryDx=0;entryDy=0;entryPerimeter=0;startArrow=block;startFill=0;endArrow=none;endFill=0;" edge="1" parent="1" source="rrGGKNv6e80Rq0QdDcq7-12" target="rrGGKNv6e80Rq0QdDcq7-14">
          <mxGeometry relative="1" as="geometry" />
        </mxCell>
        <mxCell id="rrGGKNv6e80Rq0QdDcq7-28" style="rounded=0;orthogonalLoop=1;jettySize=auto;html=1;dashed=1;endArrow=none;endFill=0;startArrow=open;startFill=0;" edge="1" parent="1" source="rrGGKNv6e80Rq0QdDcq7-12" target="rrGGKNv6e80Rq0QdDcq7-26">
          <mxGeometry relative="1" as="geometry" />
        </mxCell>
        <mxCell id="23tt6sN3tSa6Yju3RPYi-5" value="&amp;lt;&amp;lt;Extend&amp;gt;&amp;gt;" style="edgeLabel;html=1;align=center;verticalAlign=middle;resizable=0;points=[];" vertex="1" connectable="0" parent="rrGGKNv6e80Rq0QdDcq7-28">
          <mxGeometry x="0.0389" y="-1" relative="1" as="geometry">
            <mxPoint as="offset" />
          </mxGeometry>
        </mxCell>
        <mxCell id="rrGGKNv6e80Rq0QdDcq7-12" value="Select payment method" style="ellipse;whiteSpace=wrap;html=1;" vertex="1" parent="1">
          <mxGeometry x="560" y="420" width="120" height="60" as="geometry" />
        </mxCell>
        <mxCell id="rrGGKNv6e80Rq0QdDcq7-14" value="CIMB" style="shape=umlActor;verticalLabelPosition=bottom;verticalAlign=top;html=1;outlineConnect=0;" vertex="1" parent="1">
          <mxGeometry x="740" y="230" width="70" height="110" as="geometry" />
        </mxCell>
        <mxCell id="rrGGKNv6e80Rq0QdDcq7-15" value="PayPal" style="shape=umlActor;verticalLabelPosition=bottom;verticalAlign=top;html=1;outlineConnect=0;" vertex="1" parent="1">
          <mxGeometry x="740" y="395" width="70" height="110" as="geometry" />
        </mxCell>
        <mxCell id="rrGGKNv6e80Rq0QdDcq7-16" value="MayBank" style="shape=umlActor;verticalLabelPosition=bottom;verticalAlign=top;html=1;outlineConnect=0;" vertex="1" parent="1">
          <mxGeometry x="740" y="550" width="70" height="110" as="geometry" />
        </mxCell>
        <mxCell id="rrGGKNv6e80Rq0QdDcq7-24" style="rounded=0;orthogonalLoop=1;jettySize=auto;html=1;entryX=0.5;entryY=0.5;entryDx=0;entryDy=0;entryPerimeter=0;startArrow=block;startFill=0;endArrow=none;endFill=0;" edge="1" parent="1" source="rrGGKNv6e80Rq0QdDcq7-12" target="rrGGKNv6e80Rq0QdDcq7-15">
          <mxGeometry relative="1" as="geometry" />
        </mxCell>
        <mxCell id="rrGGKNv6e80Rq0QdDcq7-25" style="rounded=0;orthogonalLoop=1;jettySize=auto;html=1;entryX=0.5;entryY=0.5;entryDx=0;entryDy=0;entryPerimeter=0;startArrow=block;startFill=0;" edge="1" parent="1" source="rrGGKNv6e80Rq0QdDcq7-12" target="rrGGKNv6e80Rq0QdDcq7-16">
          <mxGeometry relative="1" as="geometry" />
        </mxCell>
        <mxCell id="rrGGKNv6e80Rq0QdDcq7-26" value="cancel transaction" style="ellipse;whiteSpace=wrap;html=1;" vertex="1" parent="1">
          <mxGeometry x="550" y="255" width="120" height="60" as="geometry" />
        </mxCell>
        <mxCell id="rrGGKNv6e80Rq0QdDcq7-31" style="rounded=0;orthogonalLoop=1;jettySize=auto;html=1;entryX=0;entryY=1;entryDx=0;entryDy=0;endArrow=none;endFill=0;" edge="1" parent="1" source="rrGGKNv6e80Rq0QdDcq7-29" target="rrGGKNv6e80Rq0QdDcq7-6">
          <mxGeometry relative="1" as="geometry" />
        </mxCell>
        <mxCell id="rrGGKNv6e80Rq0QdDcq7-29" value="Select amount" style="ellipse;whiteSpace=wrap;html=1;" vertex="1" parent="1">
          <mxGeometry x="160" y="550" width="120" height="70" as="geometry" />
        </mxCell>
        <mxCell id="rrGGKNv6e80Rq0QdDcq7-33" style="rounded=0;orthogonalLoop=1;jettySize=auto;html=1;entryX=0;entryY=0;entryDx=0;entryDy=0;endArrow=none;endFill=0;" edge="1" parent="1" source="rrGGKNv6e80Rq0QdDcq7-32" target="rrGGKNv6e80Rq0QdDcq7-12">
          <mxGeometry relative="1" as="geometry" />
        </mxCell>
        <mxCell id="rrGGKNv6e80Rq0QdDcq7-32" value="Verify address" style="ellipse;whiteSpace=wrap;html=1;" vertex="1" parent="1">
          <mxGeometry x="430" y="365" width="120" height="70" as="geometry" />
        </mxCell>
        <mxCell id="rrGGKNv6e80Rq0QdDcq7-34" style="rounded=0;orthogonalLoop=1;jettySize=auto;html=1;entryX=0.347;entryY=0.983;entryDx=0;entryDy=0;entryPerimeter=0;dashed=1;endArrow=none;endFill=0;startArrow=open;startFill=0;" edge="1" parent="1" source="rrGGKNv6e80Rq0QdDcq7-32" target="rrGGKNv6e80Rq0QdDcq7-26">
          <mxGeometry relative="1" as="geometry" />
        </mxCell>
        <mxCell id="23tt6sN3tSa6Yju3RPYi-4" value="&amp;lt;&amp;lt;Extend&amp;gt;&amp;gt;" style="edgeLabel;html=1;align=center;verticalAlign=middle;resizable=0;points=[];" vertex="1" connectable="0" parent="rrGGKNv6e80Rq0QdDcq7-34">
          <mxGeometry x="-0.2372" relative="1" as="geometry">
            <mxPoint as="offset" />
          </mxGeometry>
        </mxCell>
      </root>
    </mxGraphModel>
  </diagram>
  <diagram id="Y1OVrd5-b86H1XQFO_Gn" name="Page-2">
    <mxGraphModel dx="1050" dy="534" grid="1" gridSize="10" guides="1" tooltips="1" connect="1" arrows="1" fold="1" page="1" pageScale="1" pageWidth="850" pageHeight="1100" math="0" shadow="0">
      <root>
        <mxCell id="0" />
        <mxCell id="1" parent="0" />
      </root>
    </mxGraphModel>
  </diagram>
</mxfile>
